<?xml version="1.0" standalone="no"?>
<!DOCTYPE svg PUBLIC "-//W3C//DTD SVG 20010904//EN"
 "http://www.w3.org/TR/2001/REC-SVG-20010904/DTD/svg10.dtd">
<svg version="1.0" xmlns="http://www.w3.org/2000/svg"
 width="1024.000000pt" height="1024.000000pt" viewBox="0 0 1024.000000 1024.000000"
 preserveAspectRatio="xMidYMid meet">

<g transform="translate(0.000000,1024.000000) scale(0.100000,-0.100000)"
fill="#000000" stroke="none">
<path d="M3300 8403 c-19 -2 -80 -8 -135 -14 -522 -56 -904 -289 -1114 -679
-78 -146 -138 -377 -160 -620 -7 -76 -11 -740 -11 -1967 0 -1616 2 -1867 16
-1975 35 -281 108 -498 227 -681 234 -357 596 -556 1106 -607 139 -14 3613
-14 3771 0 159 14 276 36 405 77 232 74 417 185 570 344 204 211 304 439 367
834 15 98 23 3654 8 3888 -16 263 -75 519 -157 681 -122 243 -348 459 -591
567 -185 81 -392 129 -644 149 -112 9 -3571 12 -3658 3z m936 -1102 c15 -12
35 -21 45 -21 11 0 19 -4 19 -10 0 -5 -8 -10 -19 -10 -29 0 -70 -38 -79 -73
l-9 -32 -20 46 c-18 39 -28 49 -64 62 -31 11 -37 16 -21 16 28 1 82 28 82 41
0 5 5 21 11 37 l12 28 8 -32 c5 -17 21 -41 35 -52z m2112 5 c98 -41 327 -137
508 -214 181 -76 361 -151 401 -167 104 -40 109 -77 10 -89 -28 -4 -214 -36
-412 -71 -652 -116 -704 -125 -753 -125 -35 0 -115 24 -303 91 -367 131 -938
329 -948 329 -15 0 -24 41 -13 52 6 6 56 18 113 29 56 10 165 32 243 49 538
117 888 188 928 189 36 1 85 -15 226 -73z m-2813 -93 c19 -103 54 -142 153
-173 34 -11 51 -21 42 -24 -8 -3 -35 -13 -60 -21 -24 -9 -55 -22 -67 -31 -29
-18 -61 -80 -69 -133 -4 -23 -10 -41 -14 -41 -4 0 -13 26 -21 57 -17 72 -62
125 -121 142 -100 30 -99 30 -23 56 86 30 119 64 142 145 9 33 20 60 24 60 4
0 10 -17 14 -37z m439 -216 c8 -23 6 -31 -12 -50 -17 -17 -26 -19 -39 -11 -26
16 -33 49 -16 73 20 30 55 24 67 -12z m698 -217 c26 -32 24 -62 -49 -577 l-6
-43 687 0 687 0 26 -26 c34 -34 28 -71 -33 -193 -98 -198 -292 -341 -540 -397
-66 -15 -146 -19 -479 -23 l-400 -6 -32 -235 c-135 -982 -136 -995 -99 -1137
30 -114 111 -215 215 -267 196 -100 463 -66 915 116 159 65 192 71 213 42 20
-28 16 -63 -18 -134 -146 -309 -460 -560 -817 -652 -151 -39 -363 -49 -514
-24 -516 85 -809 478 -767 1031 5 72 30 265 55 430 24 165 60 408 80 540 19
132 37 252 40 268 l6 27 -387 0 -386 0 -24 25 c-14 13 -25 34 -25 47 0 36 25
108 60 179 86 170 221 283 422 350 87 30 105 33 265 37 l172 4 5 27 c3 14 21
134 41 266 45 298 48 311 86 334 27 16 56 18 305 17 l276 -1 20 -25z m730 -21
c134 -53 466 -172 553 -199 57 -17 120 -30 151 -30 41 0 451 70 628 107 29 6
29 6 23 -33 -3 -21 -9 -79 -13 -127 -6 -84 -8 -89 -39 -112 -44 -34 -145 -70
-267 -96 -182 -39 -478 -29 -683 22 -209 53 -462 200 -441 255 3 8 11 64 17
124 7 61 14 110 15 110 2 0 27 -9 56 -21z m1680 -141 c2 -77 -1 -120 -9 -135
-11 -19 -9 -23 22 -42 41 -24 42 -29 49 -195 l6 -128 -31 -29 c-43 -40 -104
-40 -150 -2 l-32 27 6 146 7 145 31 28 31 29 -1 124 c-1 68 1 129 4 134 3 6
19 10 35 10 l29 0 3 -112z m-3312 12 c0 -9 -11 -27 -25 -40 l-25 -24 -30 29
c-37 35 -37 44 -4 80 l25 27 30 -28 c16 -15 29 -35 29 -44z m-686 -88 c15 -7
35 -12 44 -13 9 0 1 -7 -18 -16 -48 -21 -68 -40 -75 -75 l-7 -30 -18 40 c-19
42 -44 62 -79 62 -12 0 -21 5 -21 10 0 6 7 10 15 10 32 0 66 25 82 62 l18 40
16 -39 c9 -22 27 -44 43 -51z m320 36 c16 -26 -26 -68 -52 -52 -22 14 -27 41
-11 60 15 19 49 14 63 -8z m3232 -781 c35 -30 34 -47 -9 -304 l-33 -203 258 0
259 0 24 -25 c14 -13 25 -30 25 -37 0 -7 -11 -73 -24 -147 -25 -138 -41 -175
-87 -198 -17 -9 -95 -13 -270 -13 l-247 0 -11 -82 c-27 -191 -62 -385 -73
-406 -23 -44 -55 -52 -218 -52 -147 0 -152 1 -175 25 -32 31 -31 39 5 283 17
111 30 208 30 217 0 13 -31 15 -250 15 -327 0 -305 -20 -259 238 31 181 34
182 347 182 211 0 231 1 236 18 3 9 19 109 36 222 17 113 33 213 36 222 3 9
19 29 35 43 30 24 34 25 184 25 146 0 155 -1 181 -23z"/>
</g>
</svg>
